<svg width="215" height="167" viewBox="0 0 215 167" fill="none" xmlns="http://www.w3.org/2000/svg">
<g filter="url(#filter0_d_8118_36)">
<path d="M85.5661 102.158C37.5877 65.794 7.1441 28.5684 16.2586 17.41C21.7231 10.7202 39.9156 14.8443 66.1709 28.7256C66.265 28.7743 66.3475 28.841 66.4137 28.9219C66.48 29.0027 66.5286 29.0962 66.557 29.1968C66.5853 29.2975 66.5927 29.4035 66.5788 29.5086C66.5649 29.6138 66.5299 29.7161 66.4758 29.8098C66.4218 29.9034 66.3498 29.9866 66.2638 30.0544C66.1779 30.1223 66.0798 30.1736 65.975 30.2053C65.8703 30.2371 65.761 30.2487 65.6534 30.2395C65.5458 30.2303 65.442 30.2006 65.3479 30.1518L65.3452 30.1504L65.3361 30.1456C40.6034 17.0697 22.2874 12.5606 17.5357 18.3779C9.29344 28.4685 40.9277 66.2469 86.6147 100.874C132.302 135.501 177.862 156.23 186.105 146.139C190.876 140.298 181.942 124.131 162.788 103.948C162.716 103.872 162.659 103.783 162.623 103.685C162.587 103.586 162.571 103.482 162.577 103.376C162.583 103.27 162.61 103.166 162.657 103.069C162.704 102.971 162.769 102.883 162.85 102.809C162.931 102.736 163.025 102.678 163.128 102.638C163.23 102.599 163.339 102.58 163.447 102.581C163.556 102.582 163.662 102.605 163.76 102.647C163.858 102.688 163.946 102.749 164.018 102.825L164.02 102.827L164.024 102.831C184.354 124.253 192.867 140.391 187.382 147.107C178.267 158.266 133.544 138.521 85.5661 102.158Z" fill="white"/>
</g>
<defs>
<filter id="filter0_d_8118_36" x="10.6482" y="14.274" width="182.363" height="143.945" filterUnits="userSpaceOnUse" color-interpolation-filters="sRGB">
<feFlood flood-opacity="0" result="BackgroundImageFix"/>
<feColorMatrix in="SourceAlpha" type="matrix" values="0 0 0 0 0 0 0 0 0 0 0 0 0 0 0 0 0 0 127 0" result="hardAlpha"/>
<feOffset dy="4"/>
<feGaussianBlur stdDeviation="2"/>
<feComposite in2="hardAlpha" operator="out"/>
<feColorMatrix type="matrix" values="0 0 0 0 0 0 0 0 0 0 0 0 0 0 0 0 0 0 0.25 0"/>
<feBlend mode="normal" in2="BackgroundImageFix" result="effect1_dropShadow_8118_36"/>
<feBlend mode="normal" in="SourceGraphic" in2="effect1_dropShadow_8118_36" result="shape"/>
</filter>
</defs>
</svg>
