<svg width="218" height="167" viewBox="0 0 218 167" fill="none" xmlns="http://www.w3.org/2000/svg">
<g filter="url(#filter0_d_8118_6)">
<path d="M120.734 108.348C64.0103 132.473 15.6142 140.797 10.5554 127.3C7.52245 119.207 20.5606 105.291 46.3268 89.1199C46.4182 89.0614 46.5194 89.022 46.6246 89.0038C46.7298 88.9856 46.8369 88.9891 46.9398 89.0139C47.0427 89.0388 47.1395 89.0845 47.2244 89.1486C47.3094 89.2127 47.3809 89.2939 47.435 89.3875C47.4891 89.4811 47.5247 89.5852 47.5396 89.6941C47.5546 89.8029 47.5488 89.9143 47.5223 90.0218C47.4959 90.1293 47.4495 90.2308 47.3857 90.3206C47.3219 90.4105 47.242 90.4868 47.1506 90.5452L47.1479 90.5469L47.1389 90.5525C22.8673 105.786 9.42788 119.621 12.0652 126.657C16.6399 138.863 66.1374 129.768 120.152 106.795C174.166 83.8232 215.934 54.104 211.36 41.8982C208.711 34.8318 189.914 34.6878 162.302 41.5229C162.199 41.5492 162.091 41.5541 161.987 41.5373C161.882 41.5206 161.782 41.4825 161.693 41.4253C161.603 41.3681 161.526 41.2928 161.465 41.2039C161.404 41.1149 161.361 41.0139 161.339 40.9068C161.316 40.7996 161.314 40.6883 161.332 40.5792C161.351 40.4701 161.39 40.3654 161.447 40.2711C161.505 40.1767 161.579 40.0946 161.666 40.0293C161.753 39.964 161.852 39.9169 161.955 39.8906L161.958 39.89L161.963 39.8885C191.27 32.6338 209.825 33.1323 212.869 41.256C217.928 54.7536 177.457 84.224 120.734 108.348Z" fill="white"/>
</g>
<defs>
<filter id="filter0_d_8118_6" x="6.12323" y="34.7842" width="211.173" height="106.967" filterUnits="userSpaceOnUse" color-interpolation-filters="sRGB">
<feFlood flood-opacity="0" result="BackgroundImageFix"/>
<feColorMatrix in="SourceAlpha" type="matrix" values="0 0 0 0 0 0 0 0 0 0 0 0 0 0 0 0 0 0 127 0" result="hardAlpha"/>
<feOffset dy="4"/>
<feGaussianBlur stdDeviation="2"/>
<feComposite in2="hardAlpha" operator="out"/>
<feColorMatrix type="matrix" values="0 0 0 0 0 0 0 0 0 0 0 0 0 0 0 0 0 0 0.25 0"/>
<feBlend mode="normal" in2="BackgroundImageFix" result="effect1_dropShadow_8118_6"/>
<feBlend mode="normal" in="SourceGraphic" in2="effect1_dropShadow_8118_6" result="shape"/>
</filter>
</defs>
</svg>
